<svg
      viewBox="0 0 102 99"
      fill="none"
      xmlns="http://www.w3.org/2000/svg"
    >
      <path
        d="M83.943 0H18.057C8.085 0 0 8.114 0 18.124v62.47C0 90.605 8.085 98.72 18.057 98.72h65.886c9.972 0 18.057-8.115 18.057-18.124V18.124C102 8.114 93.915 0 83.943 0z"
        fill="#470137"
      />
      <path
        d="M53.733 26.36L41.2 46.61 54.61 68.53c.085.155.11.336.067.508-.046.158-.203.26-.472.304h-9.57a1.506 1.506 0 01-1.415-.676c-.9-1.759-1.798-3.377-2.696-5.114a182.97 182.97 0 00-2.864-5.31 315.885 315.885 0 01-3-5.478h-.067c-.899 1.804-1.83 3.608-2.796 5.411a1071.23 1071.23 0 00-2.864 5.378c-.944 1.782-1.91 3.422-2.899 5.18a.956.956 0 01-.943.61H15.86a.273.273 0 01-.278-.16.277.277 0 01-.024-.111.674.674 0 01.1-.474l13.007-21.313-12.67-20.994c-.135-.18-.157-.326-.068-.44a.492.492 0 01.405-.169h9.503c.207-.011.414.024.607.102.16.092.298.219.403.372.81 1.804 1.708 3.093 2.696 4.895a292.088 292.088 0 002.999 5.344 75.413 75.413 0 012.797 5.344h.068a202.577 202.577 0 012.728-5.412 418.044 418.044 0 012.831-5.31c.966-1.78 1.897-3.035 2.797-4.793.051-.168.144-.319.27-.44a.973.973 0 01.539-.102h8.828a.385.385 0 01.47.458.388.388 0 01-.133.219zM72.393 70.15c-3.102.046-6.176-.6-8.997-1.895a14.326 14.326 0 01-6.302-5.716 18.339 18.339 0 01-2.291-9.57 17.713 17.713 0 012.29-8.862c1.573-2.75 3.885-5 6.673-6.493a21.475 21.475 0 0110.58-2.435c.225 0 .517.011.876.034.36.023 1.125.057 1.62.101V23.347a1.092 1.092 0 01.915-1.226h6.523a1.22 1.22 0 011.218 1.223v38.553c0 .767.034 1.601.1 2.503.068.902.125 1.714.17 2.434a.703.703 0 01-.404.677 30.833 30.833 0 01-6.502 2.03c-2.134.395-4.3.598-6.47.608zm4.292-8.389V43.295a9.355 9.355 0 00-1.293-.202c-.46-.047-.92-.07-1.382-.068a10.373 10.373 0 00-4.718 1.082 8.686 8.686 0 00-3.757 3.468 8.73 8.73 0 00-1.163 4.987 11.976 11.976 0 00.708 4.33 8.225 8.225 0 001.888 2.976 7.178 7.178 0 002.83 1.69 11.05 11.05 0 003.47.542c.63 0 1.214-.023 1.753-.068a9.11 9.11 0 001.664-.27z"
        fill="#FF61F6"
      />
    </svg>
