<svg
      viewBox="0 0 110 111"
      fill="none"
      xmlns="http://www.w3.org/2000/svg"
    >
      <mask
        id="prefix__a"
        style="maskType: luminance"
        maskUnits="userSpaceOnUse"
        x="0"
        y="0"
        width="110"
        height="111"
      >
        <path d="M0 0h109.754v110.157H0V0z" fill="#fff" />
      </mask>
      <g mask="url(#prefix__a)">
        <path
          d="M54.877 58.521c0-4.565 1.807-8.943 5.023-12.17a17.117 17.117 0 0112.126-5.042c4.548 0 8.91 1.814 12.126 5.041a17.244 17.244 0 015.023 12.171c0 4.565-1.806 8.943-5.023 12.171a17.117 17.117 0 01-12.126 5.041c-4.548 0-8.91-1.813-12.126-5.041a17.244 17.244 0 01-5.023-12.17z"
          fill="#1ABCFE"
        />
        <path
          d="M20.579 92.945c0-4.565 1.807-8.943 5.023-12.17a17.117 17.117 0 0112.126-5.042h17.15v17.212c0 4.565-1.808 8.943-5.024 12.171a17.116 17.116 0 01-12.126 5.041c-4.548 0-8.91-1.813-12.126-5.041a17.244 17.244 0 01-5.023-12.17z"
          fill="#0ACF83"
        />
        <path
          d="M54.877 6.885v34.424h17.15c4.547 0 8.91-1.813 12.125-5.041a17.244 17.244 0 005.023-12.171c0-4.565-1.806-8.943-5.023-12.17a17.117 17.117 0 00-12.126-5.042H54.877z"
          fill="#FF7262"
        />
        <path
          d="M20.579 24.097c0 4.565 1.807 8.943 5.023 12.17a17.117 17.117 0 0012.126 5.042h17.15V6.885h-17.15c-4.548 0-8.91 1.813-12.126 5.041a17.244 17.244 0 00-5.023 12.171z"
          fill="#F24E1E"
        />
        <path
          d="M20.579 58.521c0 4.565 1.807 8.943 5.023 12.17a17.117 17.117 0 0012.126 5.042h17.15V41.31h-17.15c-4.548 0-8.91 1.813-12.126 5.041a17.244 17.244 0 00-5.023 12.171z"
          fill="#A259FF"
        />
      </g>
    </svg>
