<svg
      viewBox="0 0 103 100"
      fill="none"
      xmlns="http://www.w3.org/2000/svg"
    >
      <path
        d="M84.072 0h-65.98C8.1 0 0 8.13 0 18.158v63.66c0 10.028 8.1 18.157 18.091 18.157h65.98c9.992 0 18.092-8.13 18.092-18.158v-63.66C102.163 8.13 94.063 0 84.072 0z"
        fill="#001E36"
      />
      <path
        d="M23.004 70.109V26.154c0-.32.138-.481.412-.481.73 0 1.397-.011 2.402-.035a1357.834 1357.834 0 016.957-.137c1.302-.023 2.592-.034 3.872-.035 3.471 0 6.395.436 8.772 1.307a15.209 15.209 0 015.723 3.508 13.462 13.462 0 013.118 4.85 16.14 16.14 0 01.96 5.537c0 3.67-.846 6.696-2.536 9.08a14.333 14.333 0 01-6.854 5.193c-2.878 1.078-6.077 1.444-9.594 1.444-1.006 0-1.714-.012-2.125-.035a37.077 37.077 0 00-1.85-.034V70.04a.548.548 0 01-.617.619h-8.16c-.32 0-.48-.183-.48-.55zm9.257-36.182v14.336c.593.046 1.141.07 1.644.069h2.262a16.02 16.02 0 004.9-.785 7.386 7.386 0 003.495-2.27c.891-1.055 1.337-2.522 1.337-4.403a6.977 6.977 0 00-.994-3.783 6.396 6.396 0 00-2.981-2.442 12.662 12.662 0 00-5.003-.86c-1.097 0-2.068.012-2.913.035-.846.023-1.428.058-1.747.103zM81.718 45.657a15.983 15.983 0 00-4.078-1.445 21.58 21.58 0 00-4.763-.55 8.832 8.832 0 00-2.57.31 2.309 2.309 0 00-1.336.86A2.172 2.172 0 0068.628 46c.013.402.157.789.411 1.1.4.47.89.856 1.44 1.135.977.528 1.984.999 3.015 1.41 2.3.773 4.498 1.824 6.545 3.13a9.975 9.975 0 013.358 3.542 9.474 9.474 0 01.994 4.403 9.915 9.915 0 01-1.645 5.675 10.826 10.826 0 01-4.763 3.817c-2.08.917-4.65 1.376-7.71 1.376a27.785 27.785 0 01-5.791-.55 18.429 18.429 0 01-4.352-1.376.888.888 0 01-.48-.825v-7.43a.406.406 0 01.172-.378.332.332 0 01.376.035c1.64.97 3.42 1.678 5.277 2.098 1.637.411 3.316.63 5.004.653 1.598 0 2.775-.206 3.529-.619a1.939 1.939 0 001.13-1.788c0-.596-.342-1.169-1.027-1.72-.685-.55-2.079-1.215-4.18-1.995a25.158 25.158 0 01-6.066-3.095 10.485 10.485 0 01-3.221-3.612 9.514 9.514 0 01-.994-4.367 9.889 9.889 0 011.44-5.16 10.47 10.47 0 014.454-3.92c2.01-1.008 4.523-1.513 7.539-1.514 1.766-.014 3.53.113 5.277.379 1.265.16 2.5.496 3.674.997a.624.624 0 01.411.379c.046.168.07.341.069.515v6.948a.464.464 0 01-.206.413.66.66 0 01-.59 0z"
        fill="#31A8FF"
      />
    </svg>
